<?xml version="1.0" standalone="no"?>
<!DOCTYPE svg PUBLIC "-//W3C//DTD SVG 20010904//EN"
 "http://www.w3.org/TR/2001/REC-SVG-20010904/DTD/svg10.dtd">
<svg version="1.0" xmlns="http://www.w3.org/2000/svg"
 width="352.000000pt" height="352.000000pt" viewBox="0 0 352.000000 352.000000"
 preserveAspectRatio="xMidYMid meet">
<metadata>
Created by potrace 1.14, written by Peter Selinger 2001-2017
</metadata>
<g transform="translate(0.000000,352.000000) scale(0.100000,-0.100000)"
fill="#000000" stroke="none">
<path d="M1735 3374 c-335 -34 -630 -168 -867 -392 -616 -585 -591 -1593 52
-2136 242 -204 511 -316 829 -345 60 -5 96 -13 102 -22 5 -8 9 -67 9 -132 0
-112 1 -119 25 -142 48 -49 63 -40 254 148 207 204 224 217 361 292 203 110
336 214 452 352 166 198 265 397 320 643 20 90 23 132 23 295 0 162 -3 205
-23 294 -66 292 -189 519 -397 727 -207 208 -454 340 -738 395 -96 19 -320 31
-402 23z m65 -755 c63 -6 173 -21 243 -34 196 -36 227 -64 274 -248 l26 -106
56 37 c177 114 354 220 375 226 40 10 98 -15 123 -53 l23 -34 0 -434 c0 -368
-2 -438 -15 -463 -28 -55 -105 -76 -165 -45 -16 8 -103 62 -193 119 -90 57
-173 108 -184 114 -19 10 -21 6 -43 -81 -46 -190 -85 -225 -290 -261 -183 -32
-279 -38 -507 -33 -222 5 -319 15 -486 53 -96 22 -147 71 -176 169 -42 138
-53 210 -58 381 -4 133 -2 193 11 270 39 230 76 313 158 352 47 22 231 57 373
71 131 12 323 12 455 0z"/>
</g>
</svg>
