<svg xmlns="http://www.w3.org/2000/svg" xmlns:xlink="http://www.w3.org/1999/xlink" width="24.269" height="23.233" viewBox="0 0 24.269 23.233">
  <defs>
    <linearGradient id="linear-gradient" x1="0.5" x2="0.5" y2="1" gradientUnits="objectBoundingBox">
      <stop offset="0" stop-color="#ff7a00"/>
      <stop offset="1" stop-color="#ff2e00"/>
    </linearGradient>
    <clipPath id="clip-path">
      <rect id="Rectangle_46068" data-name="Rectangle 46068" width="24.269" height="23.233" transform="translate(0 0)" fill="url(#linear-gradient)"/>
    </clipPath>
  </defs>
  <g id="Group_231644" data-name="Group 231644" transform="translate(0 0)">
    <g id="Group_231642" data-name="Group 231642" transform="translate(0 0)" clip-path="url(#clip-path)">
      <path id="Path_437398" data-name="Path 437398" d="M24.194,8.761A1.527,1.527,0,0,0,22.735,7.7h-.013l-6.444.06L13.585,1.035a1.534,1.534,0,0,0-2.9,0L7.993,7.761,1.548,7.7A1.538,1.538,0,0,0,.077,8.761a1.521,1.521,0,0,0,.551,1.71L6.07,14.557,4.123,21.229a1.528,1.528,0,0,0,.56,1.708,1.543,1.543,0,0,0,.908.3,1.479,1.479,0,0,0,.882-.287l5.663-3.9,5.639,3.887a1.534,1.534,0,0,0,2.373-1.7L18.2,14.558l5.425-4.074a1.527,1.527,0,0,0,.568-1.722" transform="translate(0 0)" fill="url(#linear-gradient)"/>
    </g>
  </g>
</svg>
